<?xml version="1.0" encoding="utf-8"?>
<!-- Generator: Adobe Illustrator 26.0.3, SVG Export Plug-In . SVG Version: 6.00 Build 0)  -->
<svg version="1.1" id="Layer_1" xmlns="http://www.w3.org/2000/svg" xmlns:xlink="http://www.w3.org/1999/xlink" x="0px" y="0px"
	 viewBox="0 0 64 64" style="enable-background:new 0 0 64 64;" xml:space="preserve">
<style type="text/css">
	.st0{fill:#FFFFFF;}
	.st1{fill:#FFF58A;}
	.st2{fill:#5B741B;}
</style>
<g>
	<path class="st0" d="M48.7,42.5c-1.9-1.6-3.7-3.4-5.6-5.1c-0.8-0.7-2.3-2.1-3.4-0.6c-0.5,0.7-0.2,1.7,0.1,2.4
		c0.4,1,1.2,1.8,1.7,2.7c0.1,0.2-0.1,0.6-0.4,0.5c0,0-0.1,0-0.1-0.1c-0.8,0.5-1.6,1-2.3,1.6c-0.2,0.1-0.5,0.2-0.6,0
		c-0.4-0.4-0.7-0.9-1.1-1.3c-0.2,0.6-0.4,1.2-0.7,1.8c-0.3,0.7-0.9,1.6-0.7,2.4c-0.2,0.5,0.1,0.8,0.6,0.9c0.4,0.2,0.8,0.4,1.3,0.7
		c0.6,0.3,1.1,0.6,1.7,0.9c-0.2-1.2,0.1-1.8,1.7-2.3c1.5-0.5,3-1,4.4-1.4C46.4,45.3,48.8,44.2,48.7,42.5
		C48.7,42.5,48.7,42.5,48.7,42.5z M46.4,44.3c-1.6,0.5-3.1,1-4.7,1.4c-0.9,0.3-1.8,0.7-2.7,0.8c0,0,0.1,0,0.1,0.1
		c0.5,0.4-0.2,1.1-0.7,0.8c-0.4-0.2-0.7-0.5-1.1-0.7c-0.2-0.1-0.3-0.3-0.2-0.6c0.1-0.4,0.1-0.9,0.6-1c0.3-0.1,0.4,0.2,0.4,0.5
		c0.9-0.7,2.1-0.9,3.2-1.2c1.3-0.4,2.6-0.8,3.8-1.1c-0.9-1.4-2.1-2.4-3.3-3.5c-0.3-0.3,0-0.8,0.4-0.7c2,0.8,3.4,2.4,4.5,4.2
		C47.1,43.7,46.8,44.1,46.4,44.3z"/>
	<path class="st0" d="M29.4,47.4c-1-0.3-2.1-0.2-3.1-0.4c-0.3,0-0.5-0.4-0.2-0.6c0,0,0.1,0,0.1-0.1c0.1-0.9,0.2-1.8,0.2-2.8
		c0-0.1,0-0.3,0.1-0.4c-0.1,0-0.1,0-0.2,0c-0.2,0-0.4-0.1-0.5-0.3c0,0,0,0,0,0c-0.1,1.1-0.4,2.2-0.7,3.2c-0.3,0.8-0.7,1.7-1,2.5
		c0.4,0,1.1-0.1,1.3-0.1c0.4,0,0.9-0.1,1.3-0.1c0.9,0,1.6,0.1,2.4,0.5c0.5,0.2,0.2,1.1-0.3,1c-1.3-0.2-2.6-0.1-3.9,0
		c-0.7,0-1.7,0.2-2.2-0.4c-0.6-0.8,0.3-1.9,0.6-2.6c0.5-1.4,0.8-2.8,1.3-4.2c0,0,0-0.1,0.1-0.1c-0.2,0-0.3,0-0.5,0
		c-0.3-0.1-0.4-0.5-0.2-0.7c0.3-0.2,0.6-0.3,1-0.5c0.3-0.1,0.6-0.2,1-0.2c0.5,0.1,0.7,0.6,0.9,1.1c0.1,0.2,0.1,0.5-0.1,0.6
		c0,0,0,0,0.1,0c0.6,0,1.1-0.1,1.7-0.1c-0.3-0.5-0.7-1.1-1-1.6c-0.4-0.6-0.7-1.7-1.4-2c-0.3-0.4-0.7-0.5-1.1,0
		c-0.4,0.2-0.9,0.4-1.3,0.6c-0.6,0.2-1.1,0.5-1.7,0.7c1.1,0.6,1.3,1.2,0.7,2.7c-0.5,1.5-1.1,2.9-1.6,4.4c-0.5,1.2-1.2,3.7,0.2,4.6
		c0.1,0,0.1,0.1,0.1,0.1c2.5-0.5,5-0.7,7.4-1.2c1-0.2,3.1-0.4,2.5-2.3C31.1,48,30.1,47.6,29.4,47.4z"/>
	<path class="st0" d="M25.8,34.8c0.8,0.1,1.6-0.6,2.1-1.2c0.7-0.8,1.1-1.8,1.7-2.7c0.2-0.2,0.6-0.2,0.6,0.1c0,0,0,0.1,0,0.1
		c0.8,0.5,1.6,1,2.5,1.4c0.2,0.1,0.4,0.3,0.3,0.6c-0.2,0.5-0.4,1-0.6,1.6c0.6-0.1,1.3-0.1,1.9-0.2c0.8-0.1,1.8,0.1,2.4-0.4
		c0.5-0.1,0.7-0.4,0.5-0.9c0-0.5,0-0.9,0-1.4c0-0.6,0-1.2,0.1-1.9c-1,0.8-1.6,0.7-2.8-0.5c-1.1-1.1-2.2-2.2-3.2-3.3
		c-0.9-0.9-2-2.8-3.4-1.9c0,0-0.1,0-0.1,0c-0.6,2.4-2.3,5-2.9,7.4C24.6,32.6,23.9,34.5,25.8,34.8z M26.3,31.6c0.3-1.3,1-3,1.9-4
		c0.3-0.4,0.6-0.7,1.2-0.6c1,0.1,2.2,1.4,3,2c1.1,0.9,2.2,1.7,3.3,2.6c0-0.2,0-0.3,0-0.5c0.1-0.6,1.1-0.9,1.2-0.1
		c0.1,0.6,0.1,1.2,0,1.8c0,0.3-0.2,0.5-0.5,0.6c-0.8,0.2-1.5,0.4-2.3,0.5c-0.2,0-0.4-0.4-0.2-0.5c0.3-0.2,0.6-0.4,0.9-0.6
		c0,0,0,0,0,0c-1.5-1.3-3.1-2.4-4.6-3.7c-0.3-0.1-0.5-0.3-0.6-0.6c-0.1-0.3-0.1-0.3-0.2,0c-0.2,0.1-0.5,0.8-0.6,1.1
		c-0.5,0.8-0.9,1.6-1.4,2.4C26.9,32.5,26.1,32.2,26.3,31.6z"/>
	<path class="st1" d="M52.3,44.5c-0.7-2.3-1.6-4.6-2.6-6.9c-1.7-4.2-3.6-8.3-4.9-12.7c-0.7-2.3-1.3-4.7-2-7
		c-0.3-1.2-0.7-2.3-1.1-3.5c-0.1-0.3-0.3-1.3-0.6-1.6c-0.6-0.6-2.1-0.1-2.8,0.1c-1.1,0.3-2.3,0.6-3.4,0.9c0.2,1.2,0.4,2.4,0.2,3.5
		c-0.1,0.3-0.4,0.5-0.7,0.5l-0.2,0c-0.2,0-0.5-0.2-0.6-0.4c0,0,0-0.1-0.1-0.1c-0.2-0.3,0-0.7,0.2-0.9c0-0.7-0.1-1.4-0.2-2.2
		c-2.6,0.8-5.2,1.7-7.9,2.4c-2.4,0.6-4.8,1.2-7.2,1.7c0.3,0.7,0.5,1.3,0.8,2c0.4,0.8-0.7,1.4-1.2,0.7c-0.5-0.7-0.9-1.5-1.2-2.3
		c-1.6,0.3-5.7,1.4-7.4,1.7c0.8,5.4,1.6,10.7,3,15.9c1.4,5,2.8,10,3.8,15.2c0.3,1.4,0.5,2.8,0.7,4.2c0.1,0.9,0,2.4,0.5,3.2
		c0.7,1.4,4.8-0.2,6.1-0.5c4.7-1,9.4-2.1,14-3.4c4.5-1.3,9.3-2.5,13.4-4.7c0.5-0.3,1.2-0.6,1.6-1c0.7-0.7,0.5-0.9,0.3-1.7
		C52.9,46.6,52.6,45.5,52.3,44.5z M16.9,20.6c0.2,0,0.4,0.1,0.6,0.2c0.2,0.1,0.1,0.4-0.1,0.5c-0.2,0.1-0.4,0.1-0.6,0
		C16.3,21.3,16.4,20.5,16.9,20.6z M17.4,23.1c-0.1,0.1-0.2,0.2-0.4,0.2c-0.1,0-0.2-0.1-0.2-0.2c-0.1-0.1-0.1-0.3,0-0.4
		c0.2-0.3,0.4-0.6,0.7-0.9c0.2-0.2,0.5,0,0.4,0.3C17.8,22.4,17.6,22.8,17.4,23.1z M36.2,16.8c0.2-0.1,0.5-0.1,0.7-0.3
		c0.2-0.1,0.3-0.1,0.5-0.1c0.1,0,0.2,0.2,0.2,0.3c-0.1,0.5-0.8,0.5-1.3,0.6C36,17.3,36,16.8,36.2,16.8z M35.6,18
		c0.2,0.1,0.4,0.2,0.7,0.3c0.1,0.1,0.2,0.2,0.2,0.3c0,0,0,0,0,0.1c0,0.1,0,0.2-0.1,0.2c0,0,0,0-0.1,0c-0.1,0-0.2,0.1-0.3,0
		c-0.2-0.1-0.4-0.3-0.6-0.4C35.1,18.2,35.3,17.8,35.6,18z M34.1,18.8c0.2-0.4,0.8-0.2,0.7,0.2c0,0.1,0,0.2,0,0.3
		c0,0.4-0.5,0.4-0.6,0.1C34,19.1,34,18.9,34.1,18.8z M33.3,18.5c-0.2,0.2-0.3,0.4-0.5,0.5c-0.3,0.2-0.6-0.2-0.3-0.5
		c0.2-0.2,0.4-0.2,0.6-0.4C33.3,18,33.5,18.3,33.3,18.5z M32.2,16.8c0.2,0,0.4-0.1,0.6,0c0.3,0,0.4,0.4,0.1,0.5
		c-0.2,0.1-0.3,0.2-0.5,0.2C31.9,17.7,31.7,16.9,32.2,16.8z M23.8,31.2c0.7-2.5,2.4-5.2,3.5-7.6c0-0.1,0.1-0.1,0.2-0.1
		c1.1-1.3,1.9-0.9,3,0.2c1,1,2,2.1,3,3.1c1,1.1,2.3,3.3,4,1.7c0.3-0.3,0.7-0.1,0.7,0.3c0,1.5,0,3.1,0,4.6c0,0.5,0,1.1-0.4,1.5
		c-0.5,0.4-1.6,0.4-2.2,0.4c-1.3,0.1-2.6,0.2-3.9,0.3c-0.3,0-0.6-0.3-0.4-0.6c0.3-0.8,0.9-1.5,0.4-2.1c-0.3-0.4-0.9-0.7-1.4-1
		c-0.5,2.3-3.5,5.1-5.7,3.5C23.1,34.4,23.4,32.7,23.8,31.2z M20.5,20.2c0.4-0.2,0.8-0.5,1.2-0.4c0.1,0.1,0.1,0.2,0.1,0.3
		c-0.2,0.4-0.8,0.4-1.1,0.5C20.4,20.7,20.3,20.3,20.5,20.2z M20.3,21.6c0.4,0.1,0.9,0.3,0.9,0.7c0,0.1-0.1,0.2-0.1,0.2
		c-0.4,0.2-0.8-0.2-1.1-0.5C19.9,21.9,20.1,21.5,20.3,21.6z M18.8,23.8c-0.2,0-0.2-0.2-0.3-0.4c0-0.3,0.1-0.6,0.2-0.9
		c0.2-0.3,0.7-0.1,0.6,0.3c-0.1,0.2-0.1,0.5-0.1,0.7c0,0.1-0.1,0.3-0.2,0.3C19,23.8,19,23.8,18.8,23.8z M32.5,49.7
		c-0.3,1.7-2.1,2.1-3.5,2.4c-2.5,0.4-5.2,0.8-7.8,0.7c-0.1,0-0.2-0.1-0.2-0.1c0,0,0,0,0,0c-1.7-0.4-2.2-2.1-1.7-3.5
		c0.5-1.3,1-2.7,1.5-4c0.5-1.4,2-3.5-0.1-4.4c-0.3-0.1-0.4-0.6,0-0.8c1.4-0.6,2.8-1.3,4.2-1.9c0.5-0.2,1-0.5,1.5-0.2
		c0.6,0.3,1,1.3,1.3,1.8c0.7,1.1,1.3,2.3,1.9,3.4c0.1,0.2-0.1,0.6-0.4,0.7c-0.9,0-1.7-0.2-2.1,0.6C27,44.8,27,45.5,26.9,46
		C29.2,45.5,33,47,32.5,49.7z M47.5,46c-1.4,0.4-2.7,0.9-4.1,1.3c-1.4,0.4-4,0.6-3.3,2.8c0.1,0.4-0.3,0.7-0.6,0.5
		c-1.4-0.7-2.8-1.3-4.1-2.1c-0.5-0.2-1-0.5-1.1-1c-0.2-0.7,0.4-1.6,0.6-2.2c0.5-1.2,1-2.4,1.5-3.7c0.1-0.3,0.6-0.3,0.7-0.1
		c0.6,0.7,0.9,1.5,1.7,1.3c0.5-0.1,1-0.5,1.5-0.8c-1.9-1.5-3-5.4-0.6-6.7c1.5-0.8,3,0.3,4.1,1.3c1.9,1.7,3.8,3.6,5.4,5.6
		c0,0,0,0,0,0.1c0,0,0,0,0,0C49.9,44,49,45.5,47.5,46z"/>
	<path class="st2" d="M55,49c-1.2-6-3.7-11.5-6.1-17.1c-2.5-6.1-3.8-12.6-6.2-18.8c-0.7-1.9-1.6-2.1-3.6-1.7
		c-1.5,0.3-2.9,0.8-4.4,1.3c-0.1-0.3-0.1-0.5-0.2-0.8c-0.4-1.8-1.1-3.6-2.3-5.2c-2.1-2.7-5.4-3.9-8.7-3.1c-6.2,1.5-8.4,8.1-6.9,13.7
		c-1.5,0.3-5.8,1.6-7.3,2c-0.4,0.1-0.5,0.6-0.2,0.9c0.2,3.7,0.4,7.3,1.1,10.9c0.6,3.6,1.6,7.2,2.6,10.8c0.9,3.5,1.7,7,2.4,10.6
		c0.3,1.6,0.6,3.3,0.8,5c0.1,1,0,2.9,1.1,3.5c0.8,0.5,2.2,0,3-0.2c1.6-0.3,3.2-0.7,4.8-1c3.6-0.8,7.2-1.6,10.8-2.6
		c3.6-0.9,7.1-2,10.6-3.2c3-1.1,6-2.2,8.5-4.2C55,49.6,55,49.3,55,49z M18,11.2c0.8-2.8,2.8-5.2,5.7-6c3.1-0.9,6.1,0.4,7.9,3.1
		c0.8,1.2,1.3,2.6,1.6,4c0.1,0.3,0.1,0.6,0.2,0.9c-1,0.4-2,0.7-2.9,1c-4,1.2-8.2,2-12.3,2.9C17.6,15.1,17.4,13.2,18,11.2z
		 M52.9,49.3c-0.4,0.4-1.1,0.7-1.6,1c-4.1,2.2-8.9,3.5-13.4,4.7c-4.6,1.3-9.3,2.4-14,3.4c-1.4,0.3-5.4,1.8-6.1,0.5
		c-0.4-0.8-0.3-2.3-0.5-3.2c-0.2-1.4-0.5-2.8-0.7-4.2c-1-5.1-2.4-10.1-3.8-15.2c-1.4-5.3-2.2-10.5-3-15.9c1.8-0.2,5.9-1.4,7.4-1.7
		c0.3,0.8,0.7,1.6,1.2,2.3c0.5,0.7,1.6,0.1,1.2-0.7c-0.3-0.6-0.6-1.3-0.8-2c2.4-0.5,4.8-1.1,7.2-1.7c2.7-0.6,5.3-1.5,7.9-2.4
		c0.1,0.7,0.3,1.5,0.2,2.2c-0.2,0.2-0.3,0.5-0.2,0.9c0,0,0,0.1,0.1,0.1c0.1,0.2,0.4,0.4,0.6,0.4l0.2,0c0.3,0,0.7-0.2,0.7-0.5
		c0.2-1.1,0.1-2.3-0.2-3.5c1.1-0.3,2.2-0.7,3.4-0.9c0.7-0.2,2.2-0.7,2.8-0.1c0.2,0.2,0.5,1.3,0.6,1.6c0.4,1.1,0.7,2.3,1.1,3.5
		c0.7,2.3,1.3,4.7,2,7c1.3,4.3,3.1,8.5,4.9,12.7c0.9,2.3,1.9,4.5,2.6,6.9c0.3,1,0.6,2.1,0.9,3.1C53.4,48.4,53.6,48.7,52.9,49.3z"/>
	<path class="st2" d="M24.5,35.4c2.2,1.6,5.2-1.2,5.7-3.5c0.5,0.3,1.1,0.7,1.4,1c0.5,0.7,0,1.3-0.4,2.1c-0.1,0.3,0.2,0.6,0.4,0.6
		c1.3-0.1,2.6-0.2,3.9-0.3c0.6,0,1.7,0,2.2-0.4c0.4-0.4,0.4-0.9,0.4-1.5c0-1.5,0-3.1,0-4.6c0-0.4-0.4-0.6-0.7-0.3
		c-1.7,1.5-3-0.7-4-1.7c-1-1-2-2.1-3-3.1c-1.1-1.1-1.9-1.5-3-0.2c-0.1,0-0.1,0-0.2,0.1c-1.1,2.3-2.9,5.1-3.5,7.6
		C23.4,32.7,23.1,34.4,24.5,35.4z M24.8,31.5c0.6-2.4,2.3-5,2.9-7.4c0,0,0.1,0,0.1,0c1.4-0.9,2.5,1,3.4,1.9c1.1,1.1,2.2,2.2,3.2,3.3
		c1.2,1.2,1.8,1.3,2.8,0.5c0,0.6,0,1.2-0.1,1.9c0,0.5,0,0.9,0,1.4c0.2,0.5,0,0.9-0.5,0.9c-0.6,0.5-1.7,0.3-2.4,0.4
		c-0.6,0.1-1.3,0.1-1.9,0.2c0.2-0.5,0.4-1,0.6-1.6c0.1-0.2-0.1-0.5-0.3-0.6c-0.9-0.4-1.7-0.8-2.5-1.4c0,0,0-0.1,0-0.1
		c0-0.3-0.5-0.3-0.6-0.1c-0.6,0.9-1,1.9-1.7,2.7c-0.5,0.5-1.3,1.3-2.1,1.2C23.9,34.5,24.6,32.6,24.8,31.5z"/>
	<path class="st2" d="M49.2,42.4C49.2,42.3,49.2,42.3,49.2,42.4c-1.6-2.1-3.5-3.9-5.4-5.7c-1.1-1-2.5-2.1-4.1-1.3
		c-2.4,1.3-1.3,5.2,0.6,6.7c-0.5,0.3-1.1,0.7-1.5,0.8c-0.8,0.2-1.2-0.6-1.7-1.3c-0.2-0.2-0.6-0.1-0.7,0.1c-0.5,1.2-1,2.4-1.5,3.7
		c-0.2,0.6-0.8,1.5-0.6,2.2c0.1,0.6,0.7,0.8,1.1,1c1.4,0.7,2.8,1.4,4.1,2.1c0.3,0.2,0.7-0.2,0.6-0.5c-0.6-2.2,1.9-2.4,3.3-2.8
		c1.4-0.4,2.7-0.8,4.1-1.3C49,45.5,49.9,44,49.2,42.4C49.2,42.4,49.2,42.4,49.2,42.4z M45.2,45.7c-1.5,0.5-3,0.9-4.4,1.4
		c-1.6,0.5-1.9,1-1.7,2.3c-0.5-0.3-1.1-0.6-1.7-0.9c-0.4-0.2-0.8-0.4-1.3-0.7c-0.6-0.1-0.8-0.4-0.6-0.9c-0.1-0.8,0.4-1.7,0.7-2.4
		c0.2-0.6,0.5-1.2,0.7-1.8c0.4,0.4,0.7,0.9,1.1,1.3c0.2,0.2,0.5,0.1,0.6,0c0.7-0.6,1.5-1.1,2.3-1.6c0,0,0.1,0,0.1,0.1
		c0.3,0.1,0.5-0.3,0.4-0.5c-0.5-0.9-1.3-1.7-1.7-2.7c-0.3-0.7-0.6-1.7-0.1-2.4c1.1-1.6,2.6-0.1,3.4,0.6c1.9,1.6,3.6,3.5,5.6,5.1
		c0,0,0,0,0,0C48.8,44.2,46.4,45.3,45.2,45.7z"/>
	<path class="st2" d="M17.4,21.3c0.2-0.1,0.3-0.4,0.1-0.5c-0.2-0.1-0.4-0.2-0.6-0.2c-0.5-0.1-0.6,0.7-0.1,0.7
		C17,21.3,17.2,21.3,17.4,21.3z"/>
	<path class="st2" d="M17.5,21.8c-0.3,0.2-0.5,0.6-0.7,0.9c-0.1,0.1-0.1,0.3,0,0.4c0.1,0.1,0.1,0.1,0.2,0.2c0.2,0,0.3,0,0.4-0.2
		c0.2-0.3,0.4-0.6,0.5-1C18,21.8,17.7,21.7,17.5,21.8z"/>
	<path class="st2" d="M19.3,23.5c0-0.2,0-0.5,0.1-0.7c0.1-0.3-0.4-0.6-0.6-0.3c-0.2,0.3-0.3,0.6-0.2,0.9c0,0.2,0.1,0.3,0.3,0.4
		c0.1,0,0.2,0,0.3,0C19.2,23.7,19.3,23.6,19.3,23.5z"/>
	<path class="st2" d="M21.1,22.5c0.1,0,0.1-0.1,0.1-0.2c0-0.4-0.5-0.6-0.9-0.7c-0.3-0.1-0.5,0.3-0.3,0.5
		C20.3,22.3,20.7,22.7,21.1,22.5z"/>
	<path class="st2" d="M20.7,20.6c0.3-0.1,1-0.1,1.1-0.5c0-0.1,0-0.2-0.1-0.3c-0.4-0.2-0.9,0.2-1.2,0.4
		C20.3,20.3,20.4,20.7,20.7,20.6z"/>
	<path class="st2" d="M32.3,17.5c0.2-0.1,0.4-0.1,0.5-0.2c0.2-0.2,0.2-0.5-0.1-0.5c-0.2,0-0.4,0-0.6,0
		C31.7,16.9,31.9,17.7,32.3,17.5z"/>
	<path class="st2" d="M32.8,18.9c0.2-0.1,0.4-0.3,0.5-0.5c0.2-0.2,0-0.4-0.3-0.3c-0.2,0.1-0.4,0.2-0.6,0.4
		C32.2,18.7,32.5,19.1,32.8,18.9z"/>
	<path class="st2" d="M34.7,19.3c0-0.1,0-0.2,0-0.3c0.2-0.4-0.5-0.6-0.7-0.2c-0.1,0.2-0.1,0.4,0,0.6C34.2,19.7,34.7,19.7,34.7,19.3z
		"/>
	<path class="st2" d="M35.9,18.8c0.1,0.1,0.2,0.1,0.3,0c0,0,0,0,0.1,0c0.1,0,0.1-0.1,0.1-0.2c0,0,0,0,0-0.1c0-0.1,0-0.2-0.2-0.3
		c-0.2-0.1-0.4-0.2-0.7-0.3c-0.3-0.1-0.5,0.2-0.3,0.4C35.5,18.6,35.7,18.7,35.9,18.8z"/>
	<path class="st2" d="M36.3,17.3c0.4,0,1.1-0.1,1.3-0.6c0-0.1,0-0.3-0.2-0.3c-0.2,0-0.3,0-0.5,0.1c-0.2,0.1-0.4,0.2-0.7,0.3
		C36,16.8,36,17.3,36.3,17.3z"/>
	<path class="st2" d="M27.3,32c0.6-0.7,1-1.6,1.4-2.4c0.1-0.2,0.4-0.9,0.6-1.1c0.1-0.3,0.2-0.4,0.2,0c0.1,0.3,0.3,0.5,0.6,0.6
		c1.5,1.3,3.1,2.4,4.6,3.7c0,0,0,0,0,0c-0.3,0.2-0.6,0.3-0.9,0.6c-0.2,0.1,0,0.5,0.2,0.5c0.8-0.1,1.5-0.3,2.3-0.5
		c0.3-0.1,0.4-0.3,0.5-0.6c0.1-0.6,0.1-1.2,0-1.8c-0.1-0.7-1.1-0.5-1.2,0.1c0,0.2,0,0.3,0,0.5c-1.1-0.9-2.1-1.8-3.3-2.6
		c-0.8-0.6-2-2-3-2c-0.6,0-0.8,0.2-1.2,0.6c-0.9,1-1.6,2.8-1.9,4C26.1,32.2,26.9,32.5,27.3,32z"/>
	<path class="st2" d="M26.9,46c0.1-0.6,0.1-1.2,0.4-1.7c0.4-0.8,1.2-0.5,2.1-0.6c0.3,0,0.5-0.4,0.4-0.7c-0.6-1.1-1.3-2.3-1.9-3.4
		c-0.3-0.5-0.7-1.6-1.3-1.8c-0.5-0.2-1,0-1.5,0.2c-1.4,0.6-2.8,1.3-4.2,1.9c-0.3,0.2-0.3,0.6,0,0.8c2.1,0.9,0.7,3,0.1,4.4
		c-0.5,1.3-1.1,2.7-1.5,4c-0.5,1.4,0,3,1.7,3.5c0,0,0,0,0,0c0,0.1,0.1,0.1,0.2,0.1c2.6,0,5.2-0.3,7.8-0.7c1.5-0.3,3.2-0.7,3.5-2.4
		C33,47,29.2,45.5,26.9,46z M28.8,51.1c-2.5,0.5-5,0.7-7.4,1.2c0,0-0.1-0.1-0.1-0.1c-1.4-0.9-0.7-3.4-0.2-4.6
		c0.6-1.4,1.1-2.9,1.6-4.4c0.6-1.6,0.4-2.2-0.7-2.7c0.6-0.2,1.1-0.5,1.7-0.7c0.4-0.2,0.9-0.4,1.3-0.6c0.4-0.4,0.8-0.4,1.1,0
		c0.7,0.4,1,1.4,1.4,2c0.3,0.6,0.7,1.1,1,1.6c-0.6,0-1.1,0.1-1.7,0.1c0,0,0,0-0.1,0c0.1-0.2,0.2-0.4,0.1-0.6
		c-0.2-0.4-0.4-0.9-0.9-1.1c-0.3-0.1-0.7,0.1-1,0.2c-0.4,0.1-0.7,0.2-1,0.5c-0.2,0.2-0.1,0.6,0.2,0.7c0.2,0,0.4,0,0.5,0
		c0,0,0,0.1-0.1,0.1c-0.4,1.4-0.7,2.8-1.3,4.2c-0.3,0.7-1.2,1.9-0.6,2.6c0.5,0.6,1.5,0.4,2.2,0.4c1.3-0.1,2.6-0.1,3.9,0
		c0.5,0.1,0.8-0.8,0.3-1c-0.8-0.4-1.5-0.5-2.4-0.5c-0.4,0-0.9,0-1.3,0.1c-0.2,0-0.9,0.1-1.3,0.1c0.3-0.9,0.7-1.7,1-2.5
		c0.3-1,0.6-2.1,0.7-3.2c0,0,0,0,0,0c0.1,0.2,0.3,0.3,0.5,0.3c0.1,0,0.1,0,0.2,0c-0.1,0.1-0.1,0.2-0.1,0.4c0,1-0.1,1.9-0.2,2.8
		c0,0-0.1,0-0.1,0.1c-0.3,0.2-0.1,0.6,0.2,0.6c1.1,0.2,2.1,0.1,3.1,0.4c0.7,0.2,1.7,0.6,1.9,1.4C31.9,50.6,29.8,50.9,28.8,51.1z"/>
	<path class="st2" d="M42.4,39.1C42,39,41.7,39.5,42,39.8c1.3,1.1,2.4,2.1,3.3,3.5c-1.3,0.4-2.6,0.7-3.8,1.1
		c-1.1,0.3-2.3,0.5-3.2,1.2c0-0.3-0.1-0.6-0.4-0.5c-0.5,0.1-0.5,0.7-0.6,1c-0.1,0.2,0,0.4,0.2,0.6c0.3,0.2,0.7,0.5,1.1,0.7
		c0.5,0.3,1.2-0.4,0.7-0.8c0,0-0.1,0-0.1-0.1c0.9-0.1,1.8-0.5,2.7-0.8c1.6-0.5,3.1-0.9,4.7-1.4c0.4-0.1,0.6-0.6,0.4-1
		C45.8,41.5,44.4,39.8,42.4,39.1z"/>
</g>
</svg>
